<svg height="3054" width="720" xmlns="http://www.w3.org/2000/svg">
<rect height="3054" fill="#555" width="720"></rect>
<text fill="#7f7" font-family="Courier New" font-size="12" xml:space="preserve">
<tspan x="10" y="26">34 megabytes installed</tspan>
<tspan x="10" y="42"></tspan>
<tspan x="10" y="58">node_modules</tspan>
<tspan x="10" y="74">└─┬ artillery@1.5.8-1 </tspan>
<tspan x="10" y="90">  ├─┬ arrivals@2.1.0 </tspan>
<tspan x="10" y="106">  │ ├─┬ debug@2.3.3 </tspan>
<tspan x="10" y="122">  │ │ └── ms@0.7.2 </tspan>
<tspan x="10" y="138">  │ └── nanotimer@0.3.14 </tspan>
<tspan x="10" y="154">  ├─┬ artillery-core@4.0.3 </tspan>
<tspan x="10" y="170">  │ ├── UNMET PEER DEPENDENCY bower@*</tspan>
<tspan x="10" y="186">  │ ├─┬ cheerio@0.20.0 </tspan>
<tspan x="10" y="202">  │ │ ├─┬ css-select@1.2.0 </tspan>
<tspan x="10" y="218">  │ │ │ ├── boolbase@1.0.0 </tspan>
<tspan x="10" y="234">  │ │ │ ├── css-what@2.1.0 </tspan>
<tspan x="10" y="250">  │ │ │ ├── domutils@1.5.1 </tspan>
<tspan x="10" y="266">  │ │ │ └── nth-check@1.0.1 </tspan>
<tspan x="10" y="282">  │ │ ├─┬ dom-serializer@0.1.0 </tspan>
<tspan x="10" y="298">  │ │ │ └── domelementtype@1.1.3 </tspan>
<tspan x="10" y="314">  │ │ ├── entities@1.1.1 </tspan>
<tspan x="10" y="330">  │ │ ├─┬ htmlparser2@3.8.3 </tspan>
<tspan x="10" y="346">  │ │ │ ├── domelementtype@1.3.0 </tspan>
<tspan x="10" y="362">  │ │ │ ├── domhandler@2.3.0 </tspan>
<tspan x="10" y="378">  │ │ │ ├── entities@1.0.0 </tspan>
<tspan x="10" y="394">  │ │ │ └─┬ readable-stream@1.1.14 </tspan>
<tspan x="10" y="410">  │ │ │   ├── core-util-is@1.0.2 </tspan>
<tspan x="10" y="426">  │ │ │   └── string_decoder@0.10.31 </tspan>
<tspan x="10" y="442">  │ │ └─┬ jsdom@7.2.2 </tspan>
<tspan x="10" y="458">  │ │   ├── abab@1.0.3 </tspan>
<tspan x="10" y="474">  │ │   ├── acorn@2.7.0 </tspan>
<tspan x="10" y="490">  │ │   ├── acorn-globals@1.0.9 </tspan>
<tspan x="10" y="506">  │ │   ├── cssom@0.3.2 </tspan>
<tspan x="10" y="522">  │ │   ├── cssstyle@0.2.37 </tspan>
<tspan x="10" y="538">  │ │   ├─┬ escodegen@1.8.1 </tspan>
<tspan x="10" y="554">  │ │   │ ├── esprima@2.7.3 </tspan>
<tspan x="10" y="570">  │ │   │ ├── estraverse@1.9.3 </tspan>
<tspan x="10" y="586">  │ │   │ ├── esutils@2.0.2 </tspan>
<tspan x="10" y="602">  │ │   │ ├─┬ optionator@0.8.2 </tspan>
<tspan x="10" y="618">  │ │   │ │ ├── deep-is@0.1.3 </tspan>
<tspan x="10" y="634">  │ │   │ │ ├── fast-levenshtein@2.0.6 </tspan>
<tspan x="10" y="650">  │ │   │ │ ├── levn@0.3.0 </tspan>
<tspan x="10" y="666">  │ │   │ │ ├── prelude-ls@1.1.2 </tspan>
<tspan x="10" y="682">  │ │   │ │ ├── type-check@0.3.2 </tspan>
<tspan x="10" y="698">  │ │   │ │ └── wordwrap@1.0.0 </tspan>
<tspan x="10" y="714">  │ │   │ └─┬ source-map@0.2.0 </tspan>
<tspan x="10" y="730">  │ │   │   └── amdefine@1.0.1 </tspan>
<tspan x="10" y="746">  │ │   ├── nwmatcher@1.3.9 </tspan>
<tspan x="10" y="762">  │ │   ├── parse5@1.5.1 </tspan>
<tspan x="10" y="778">  │ │   ├── sax@1.2.2 </tspan>
<tspan x="10" y="794">  │ │   ├── symbol-tree@3.2.2 </tspan>
<tspan x="10" y="810">  │ │   ├── webidl-conversions@2.0.1 </tspan>
<tspan x="10" y="826">  │ │   ├─┬ whatwg-url-compat@0.6.5 </tspan>
<tspan x="10" y="842">  │ │   │ └── tr46@0.0.3 </tspan>
<tspan x="10" y="858">  │ │   └── xml-name-validator@2.0.1 </tspan>
<tspan x="10" y="874">  │ ├── deep-equal@1.0.1 </tspan>
<tspan x="10" y="890">  │ ├── esprima@2.5.0 </tspan>
<tspan x="10" y="906">  │ ├── filtrex@0.5.4 </tspan>
<tspan x="10" y="922">  │ ├── jsck@0.2.5 </tspan>
<tspan x="10" y="938">  │ ├── JSONPath@0.11.2 </tspan>
<tspan x="10" y="954">  │ ├── lodash@4.13.1 </tspan>
<tspan x="10" y="970">  │ ├─┬ request@2.72.0 </tspan>
<tspan x="10" y="986">  │ │ ├── aws-sign2@0.6.0 </tspan>
<tspan x="10" y="1002">  │ │ ├── aws4@1.6.0 </tspan>
<tspan x="10" y="1018">  │ │ ├─┬ bl@1.1.2 </tspan>
<tspan x="10" y="1034">  │ │ │ └─┬ readable-stream@2.0.6 </tspan>
<tspan x="10" y="1050">  │ │ │   ├── isarray@1.0.0 </tspan>
<tspan x="10" y="1066">  │ │ │   ├── process-nextick-args@1.0.7 </tspan>
<tspan x="10" y="1082">  │ │ │   └── util-deprecate@1.0.2 </tspan>
<tspan x="10" y="1098">  │ │ ├── caseless@0.11.0 </tspan>
<tspan x="10" y="1114">  │ │ ├─┬ combined-stream@1.0.5 </tspan>
<tspan x="10" y="1130">  │ │ │ └── delayed-stream@1.0.0 </tspan>
<tspan x="10" y="1146">  │ │ ├── extend@3.0.0 </tspan>
<tspan x="10" y="1162">  │ │ ├── forever-agent@0.6.1 </tspan>
<tspan x="10" y="1178">  │ │ ├─┬ form-data@1.0.1 </tspan>
<tspan x="10" y="1194">  │ │ │ └── async@2.3.0 </tspan>
<tspan x="10" y="1210">  │ │ ├─┬ har-validator@2.0.6 </tspan>
<tspan x="10" y="1226">  │ │ │ ├─┬ is-my-json-valid@2.16.0 </tspan>
<tspan x="10" y="1242">  │ │ │ │ ├── generate-function@2.0.0 </tspan>
<tspan x="10" y="1258">  │ │ │ │ ├─┬ generate-object-property@1.2.0 </tspan>
<tspan x="10" y="1274">  │ │ │ │ │ └── is-property@1.0.2 </tspan>
<tspan x="10" y="1290">  │ │ │ │ ├── jsonpointer@4.0.1 </tspan>
<tspan x="10" y="1306">  │ │ │ │ └── xtend@4.0.1 </tspan>
<tspan x="10" y="1322">  │ │ │ └─┬ pinkie-promise@2.0.1 </tspan>
<tspan x="10" y="1338">  │ │ │   └── pinkie@2.0.4 </tspan>
<tspan x="10" y="1354">  │ │ ├─┬ hawk@3.1.3 </tspan>
<tspan x="10" y="1370">  │ │ │ ├── boom@2.10.1 </tspan>
<tspan x="10" y="1386">  │ │ │ ├── cryptiles@2.0.5 </tspan>
<tspan x="10" y="1402">  │ │ │ ├── hoek@2.16.3 </tspan>
<tspan x="10" y="1418">  │ │ │ └── sntp@1.0.9 </tspan>
<tspan x="10" y="1434">  │ │ ├─┬ http-signature@1.1.1 </tspan>
<tspan x="10" y="1450">  │ │ │ ├── assert-plus@0.2.0 </tspan>
<tspan x="10" y="1466">  │ │ │ ├─┬ jsprim@1.4.0 </tspan>
<tspan x="10" y="1482">  │ │ │ │ ├── assert-plus@1.0.0 </tspan>
<tspan x="10" y="1498">  │ │ │ │ ├── extsprintf@1.0.2 </tspan>
<tspan x="10" y="1514">  │ │ │ │ ├── json-schema@0.2.3 </tspan>
<tspan x="10" y="1530">  │ │ │ │ └── verror@1.3.6 </tspan>
<tspan x="10" y="1546">  │ │ │ └─┬ sshpk@1.13.0 </tspan>
<tspan x="10" y="1562">  │ │ │   ├── asn1@0.2.3 </tspan>
<tspan x="10" y="1578">  │ │ │   ├── assert-plus@1.0.0 </tspan>
<tspan x="10" y="1594">  │ │ │   ├── bcrypt-pbkdf@1.0.1 </tspan>
<tspan x="10" y="1610">  │ │ │   ├─┬ dashdash@1.14.1 </tspan>
<tspan x="10" y="1626">  │ │ │   │ └── assert-plus@1.0.0 </tspan>
<tspan x="10" y="1642">  │ │ │   ├── ecc-jsbn@0.1.1 </tspan>
<tspan x="10" y="1658">  │ │ │   ├─┬ getpass@0.1.6 </tspan>
<tspan x="10" y="1674">  │ │ │   │ └── assert-plus@1.0.0 </tspan>
<tspan x="10" y="1690">  │ │ │   ├── jodid25519@1.0.2 </tspan>
<tspan x="10" y="1706">  │ │ │   ├── jsbn@0.1.1 </tspan>
<tspan x="10" y="1722">  │ │ │   └── tweetnacl@0.14.5 </tspan>
<tspan x="10" y="1738">  │ │ ├── is-typedarray@1.0.0 </tspan>
<tspan x="10" y="1754">  │ │ ├── isstream@0.1.2 </tspan>
<tspan x="10" y="1770">  │ │ ├── json-stringify-safe@5.0.1 </tspan>
<tspan x="10" y="1786">  │ │ ├─┬ mime-types@2.1.15 </tspan>
<tspan x="10" y="1802">  │ │ │ └── mime-db@1.27.0 </tspan>
<tspan x="10" y="1818">  │ │ ├── node-uuid@1.4.8 </tspan>
<tspan x="10" y="1834">  │ │ ├── oauth-sign@0.8.2 </tspan>
<tspan x="10" y="1850">  │ │ ├── qs@6.1.2 </tspan>
<tspan x="10" y="1866">  │ │ ├── stringstream@0.0.5 </tspan>
<tspan x="10" y="1882">  │ │ └── tunnel-agent@0.4.3 </tspan>
<tspan x="10" y="1898">  │ ├─┬ rolex@1.0.0 </tspan>
<tspan x="10" y="1914">  │ │ └── present@0.0.3 </tspan>
<tspan x="10" y="1930">  │ ├─┬ socket.io-client@1.4.6 </tspan>
<tspan x="10" y="1946">  │ │ ├── backo2@1.0.2 </tspan>
<tspan x="10" y="1962">  │ │ ├── component-bind@1.0.0 </tspan>
<tspan x="10" y="1978">  │ │ ├── component-emitter@1.2.0 </tspan>
<tspan x="10" y="1994">  │ │ ├─┬ engine.io-client@1.6.9 </tspan>
<tspan x="10" y="2010">  │ │ │ ├── component-emitter@1.1.2 </tspan>
<tspan x="10" y="2026">  │ │ │ ├── component-inherit@0.0.3 </tspan>
<tspan x="10" y="2042">  │ │ │ ├─┬ engine.io-parser@1.2.4 </tspan>
<tspan x="10" y="2058">  │ │ │ │ ├── after@0.8.1 </tspan>
<tspan x="10" y="2074">  │ │ │ │ ├── arraybuffer.slice@0.0.6 </tspan>
<tspan x="10" y="2090">  │ │ │ │ ├── base64-arraybuffer@0.1.2 </tspan>
<tspan x="10" y="2106">  │ │ │ │ ├── blob@0.0.4 </tspan>
<tspan x="10" y="2122">  │ │ │ │ ├── has-binary@0.1.6 </tspan>
<tspan x="10" y="2138">  │ │ │ │ └── utf8@2.1.0 </tspan>
<tspan x="10" y="2154">  │ │ │ ├── has-cors@1.1.0 </tspan>
<tspan x="10" y="2170">  │ │ │ ├── parsejson@0.0.1 </tspan>
<tspan x="10" y="2186">  │ │ │ ├── parseqs@0.0.2 </tspan>
<tspan x="10" y="2202">  │ │ │ ├── xmlhttprequest-ssl@1.5.1 </tspan>
<tspan x="10" y="2218">  │ │ │ └── yeast@0.1.2 </tspan>
<tspan x="10" y="2234">  │ │ ├─┬ has-binary@0.1.7 </tspan>
<tspan x="10" y="2250">  │ │ │ └── isarray@0.0.1 </tspan>
<tspan x="10" y="2266">  │ │ ├── indexof@0.0.1 </tspan>
<tspan x="10" y="2282">  │ │ ├── object-component@0.0.3 </tspan>
<tspan x="10" y="2298">  │ │ ├─┬ parseuri@0.0.4 </tspan>
<tspan x="10" y="2314">  │ │ │ └─┬ better-assert@1.0.2 </tspan>
<tspan x="10" y="2330">  │ │ │   └── callsite@1.0.0 </tspan>
<tspan x="10" y="2346">  │ │ ├─┬ socket.io-parser@2.2.6 </tspan>
<tspan x="10" y="2362">  │ │ │ ├── benchmark@1.0.0 </tspan>
<tspan x="10" y="2378">  │ │ │ ├── component-emitter@1.1.2 </tspan>
<tspan x="10" y="2394">  │ │ │ └── json3@3.3.2 </tspan>
<tspan x="10" y="2410">  │ │ └── to-array@0.1.4 </tspan>
<tspan x="10" y="2426">  │ ├─┬ stats-lite@2.0.0 </tspan>
<tspan x="10" y="2442">  │ │ └── isnumber@1.0.0 </tspan>
<tspan x="10" y="2458">  │ ├── tough-cookie@2.2.2 </tspan>
<tspan x="10" y="2474">  │ ├── traverse@0.6.6 </tspan>
<tspan x="10" y="2490">  │ ├── uuid@3.0.1 </tspan>
<tspan x="10" y="2506">  │ └─┬ ws@1.0.1 </tspan>
<tspan x="10" y="2522">  │   ├── options@0.0.6 </tspan>
<tspan x="10" y="2538">  │   └── ultron@1.0.2 </tspan>
<tspan x="10" y="2554">  ├── async@1.5.2 </tspan>
<tspan x="10" y="2570">  ├─┬ chalk@1.1.3 </tspan>
<tspan x="10" y="2586">  │ ├── ansi-styles@2.2.1 </tspan>
<tspan x="10" y="2602">  │ ├── escape-string-regexp@1.0.5 </tspan>
<tspan x="10" y="2618">  │ ├─┬ has-ansi@2.0.0 </tspan>
<tspan x="10" y="2634">  │ │ └── ansi-regex@2.1.1 </tspan>
<tspan x="10" y="2650">  │ ├── strip-ansi@3.0.1 </tspan>
<tspan x="10" y="2666">  │ └── supports-color@2.0.0 </tspan>
<tspan x="10" y="2682">  ├─┬ cli@0.6.6 </tspan>
<tspan x="10" y="2698">  │ ├── exit@0.1.2 </tspan>
<tspan x="10" y="2714">  │ └─┬ glob@3.2.11 </tspan>
<tspan x="10" y="2730">  │   ├── inherits@2.0.3 </tspan>
<tspan x="10" y="2746">  │   └─┬ minimatch@0.3.0 </tspan>
<tspan x="10" y="2762">  │     ├── lru-cache@2.7.3 </tspan>
<tspan x="10" y="2778">  │     └── sigmund@1.0.1 </tspan>
<tspan x="10" y="2794">  ├─┬ commander@2.9.0 </tspan>
<tspan x="10" y="2810">  │ └── graceful-readlink@1.0.1 </tspan>
<tspan x="10" y="2826">  ├── csv-parse@0.1.4 </tspan>
<tspan x="10" y="2842">  ├─┬ debug@2.2.0 </tspan>
<tspan x="10" y="2858">  │ └── ms@0.7.1 </tspan>
<tspan x="10" y="2874">  ├── lodash@4.17.2 </tspan>
<tspan x="10" y="2890">  ├── moment@2.11.2 </tspan>
<tspan x="10" y="2906">  ├── open@0.0.5 </tspan>
<tspan x="10" y="2922">  ├─┬ rc@1.2.1 </tspan>
<tspan x="10" y="2938">  │ ├── deep-extend@0.4.1 </tspan>
<tspan x="10" y="2954">  │ ├── ini@1.3.4 </tspan>
<tspan x="10" y="2970">  │ ├── minimist@1.2.0 </tspan>
<tspan x="10" y="2986">  │ └── strip-json-comments@2.0.1 </tspan>
<tspan x="10" y="3002">  ├─┬ tmp@0.0.28 </tspan>
<tspan x="10" y="3018">  │ └── os-tmpdir@1.0.2 </tspan>
<tspan x="10" y="3034">  └── yaml-js@0.1.4</tspan>
</text>
</svg>
